<svg width="32" height="32" viewBox="0 0 32 32" fill="none" xmlns="http://www.w3.org/2000/svg">
<g clip-path="url(#clip0_6210_16768)">
<circle cx="16" cy="16" r="13.5385" stroke="#00895D" stroke-width="4.92308"/>
<path d="M15.9991 3.69214C13.5649 3.69214 11.1853 4.41397 9.16131 5.76636C7.13733 7.11874 5.55982 9.04094 4.62828 11.2899C3.69674 13.5388 3.45301 16.0135 3.9279 18.4009C4.4028 20.7884 5.57499 22.9814 7.29625 24.7027C9.01751 26.4239 11.2105 27.5961 13.598 28.071C15.9854 28.5459 18.4601 28.3022 20.709 27.3706C22.958 26.4391 24.8802 24.8616 26.2326 22.8376C27.585 20.8136 28.3068 18.4341 28.3068 15.9998C28.3068 12.7356 27.0101 9.60512 24.7019 7.29698C22.3938 4.98884 19.2633 3.69214 15.9991 3.69214ZM12.194 14.246C12.2893 14.1498 12.4028 14.0735 12.5277 14.0215C12.6527 13.9694 12.7868 13.9426 12.9222 13.9426C13.0576 13.9426 13.1916 13.9694 13.3166 14.0215C13.4416 14.0735 13.555 14.1498 13.6504 14.246L14.9735 15.5793V8.82034C14.9735 8.54833 15.0815 8.28745 15.2739 8.0951C15.4662 7.90276 15.7271 7.7947 15.9991 7.7947C16.2711 7.7947 16.532 7.90276 16.7243 8.0951C16.9167 8.28745 17.0247 8.54833 17.0247 8.82034V15.5793L18.3478 14.246C18.5409 14.0528 18.8029 13.9443 19.076 13.9443C19.3492 13.9443 19.6111 14.0528 19.8042 14.246C19.9974 14.4391 20.1059 14.7011 20.1059 14.9742C20.1059 15.2473 19.9974 15.5093 19.8042 15.7024L16.7273 18.7793C16.632 18.8754 16.5185 18.9517 16.3935 19.0038C16.2686 19.0559 16.1345 19.0827 15.9991 19.0827C15.8637 19.0827 15.7296 19.0559 15.6047 19.0038C15.4797 18.9517 15.3662 18.8754 15.2709 18.7793L12.194 15.7024C12.0978 15.607 12.0215 15.4936 11.9695 15.3686C11.9174 15.2436 11.8906 15.1096 11.8906 14.9742C11.8906 14.8388 11.9174 14.7047 11.9695 14.5797C12.0215 14.4548 12.0978 14.3413 12.194 14.246ZM23.1786 21.128C23.1179 21.9961 22.7182 22.8055 22.0657 23.3812C21.4131 23.957 20.5603 24.2529 19.6914 24.205H12.3068C11.4379 24.2529 10.5851 23.957 9.93255 23.3812C9.28003 22.8055 8.88026 21.9961 8.81962 21.128V18.0511C8.81962 17.7791 8.92767 17.5182 9.12002 17.3259C9.31236 17.1335 9.57324 17.0255 9.84526 17.0255C10.1173 17.0255 10.3781 17.1335 10.5705 17.3259C10.7628 17.5182 10.8709 17.7791 10.8709 18.0511V21.128C10.8709 21.6819 11.5273 22.1537 12.3068 22.1537H19.6914C20.4709 22.1537 21.1273 21.6819 21.1273 21.128V18.0511C21.1273 17.7791 21.2354 17.5182 21.4277 17.3259C21.6201 17.1335 21.8809 17.0255 22.1529 17.0255C22.425 17.0255 22.6858 17.1335 22.8782 17.3259C23.0705 17.5182 23.1786 17.7791 23.1786 18.0511V21.128Z" fill="#00895D"/>
</g>
<defs>
<clipPath id="clip0_6210_16768">
<rect width="32" height="32" fill="white"/>
</clipPath>
</defs>
</svg>
