<?xml version="1.0" encoding="utf-8"?>
<!-- Generator: Adobe Illustrator 27.0.0, SVG Export Plug-In . SVG Version: 6.00 Build 0)  -->
<svg version="1.1" id="Layer_1" xmlns="http://www.w3.org/2000/svg" xmlns:xlink="http://www.w3.org/1999/xlink" x="0px" y="0px"
	 viewBox="0 0 353.27 168.28" style="enable-background:new 0 0 353.27 168.28;" xml:space="preserve">
<style type="text/css">
	.st0{fill:#0A8F5F;}
	.st1{fill:#808285;}
	.st2{fill:#2B357B;}
	.st3{fill:#F26522;}
</style>
<g>
	<g>
		<path class="st1" d="M178.75,72.79c-8.04,0-14.73-2.88-20.08-8.65c-5.35-5.76-8.02-12.87-8.02-21.32c0-8.56,2.75-15.67,8.25-21.32
			c5.5-5.65,12.34-8.48,20.53-8.48c7.89,0,14.94,2.9,21.17,8.7l-6.71,9.26c-4.52-4.18-9.34-6.27-14.47-6.27
			c-4.92,0-8.92,1.73-11.98,5.19c-3.06,3.46-4.6,7.77-4.6,12.92c0,2.63,0.37,4.97,1.11,7.02c0.74,2.05,1.74,3.82,3,5.32
			c1.26,1.5,2.7,2.71,4.33,3.66c2.51,1.47,5.25,2.2,8.21,2.2c3.16,0,6.61-1.08,10.32-3.24V48.3h-11.08V38.07h21.4v26.96
			C193.87,70.2,186.74,72.79,178.75,72.79z"/>
		<path class="st1" d="M225.99,72.79c-6.73,0-11.94-2.18-15.63-6.53c-3.69-4.36-5.54-9.8-5.54-16.33c0-7.2,1.98-12.86,5.95-16.96
			c3.97-4.1,8.94-6.16,14.92-6.16c4.67,0,8.48,0.99,11.41,2.98c3.01,2.09,5.19,4.92,6.54,8.47c1.34,3.55,2.02,7.54,2.02,11.94
			l-0.08,3.14H216.5c1.61,6.14,5.1,9.21,10.47,9.21c3.87,0,7.28-1.62,10.25-4.86l6.1,7C239.1,70.09,233.33,72.79,225.99,72.79z
			 M234.73,45.57c-0.55-6.09-3.54-9.13-8.97-9.13c-2.96,0-5.21,0.85-6.74,2.54c-1.53,1.69-2.45,3.89-2.75,6.59H234.73z"/>
		<path class="st1" d="M265.77,72.79c-3.62,0-6.64-1.12-9.08-3.37c-2.44-2.25-3.65-5.84-3.65-10.79V37.38h-5.65v-9.04h5.65V15.71
			h11.53v12.63h11v9.04h-11v19.01c0,3.54,1.23,5.31,3.69,5.31c1.61,0,3.49-0.57,5.65-1.71l2.41,9.64
			C273.11,71.74,269.59,72.79,265.77,72.79z"/>
		<path class="st1" d="M313.48,71.31h-33.84v-7.82l19.61-25.65h-18.9v-9.66h32.5v7.78l-19.61,25.61h20.25V71.31z"/>
	</g>
	<g>
		<path class="st2" d="M148.06,154.68h-18.95v-72.3h28.97c7.83,0,14.12,2.08,18.86,6.25c4.74,4.16,7.11,10.65,7.11,19.46
			c0,8.05-2.16,14.59-6.47,19.62c-4.31,5.02-10.81,7.54-19.49,7.54h-10.02V154.68z M157.17,118.68c5.95,0,8.93-3.36,8.93-10.08
			c0-6.38-2.98-9.56-8.93-9.56h-9.11v19.65H157.17z"/>
		<path class="st2" d="M248.15,154.68h-20.22l-3.73-11.55h-25.78l-3.83,11.55h-19.49l27.24-72.3h19.49L248.15,154.68z
			 M219.18,127.45l-7.65-23.62l-7.83,23.62H219.18z"/>
		<path class="st2" d="M273.29,154.68h-18.95v-72.3h18.95V154.68z"/>
		<path class="st2" d="M307.35,154.68h-27.33v-72.3h27.96c10.08,0,18.32,3.15,24.73,9.44c6.41,6.29,9.61,15.18,9.61,26.66
			c0,11.41-3.28,20.3-9.84,26.66C325.93,151.5,317.55,154.68,307.35,154.68z M308.53,137.87c2.43,0,4.74-0.64,6.95-1.91
			c2.2-1.27,4.01-3.33,5.42-6.19c1.41-2.85,2.12-6.55,2.12-11.09c0-6.46-1.5-11.31-4.51-14.54c-3.01-3.23-6.63-4.85-10.89-4.85
			h-8.65v38.58H308.53z"/>
	</g>
	<path class="st0" d="M149.75,14.15c1.21,0.88,1.49,2.57,0.64,3.8l-91.1,132.34c-4.19,6.09-13.16,6.19-17.48,0.19L11.69,98.51
		c-2.43-4.85,1.45-8,5.82-4.36l29.56,25.34c1.59,1.36,3.98,1.18,5.35-0.4l93.64-104.55C147.01,13.47,148.61,13.3,149.75,14.15
		L149.75,14.15z"/>
	<path class="st3" d="M140.78,42.51c-0.76,0-1.47,0.37-1.9,1l-73.85,107.5c-0.88,1.26-2.21,3.25-4.52,4.19l5.01,0.05
		c0.01,0,0.01,0,0.02,0l0.01,0c0.01,0,0.01,0,0.02,0l0.01,0c0.01,0,0.01,0,0.02,0l0.01,0c0.01,0,0.01,0,0.02,0l0.01,0
		c0.01,0,0.01,0,0.02,0l0.01,0c0.01,0,0.01,0,0.02,0l0.01,0c0.01,0,0.01,0,0.02,0l0.01,0c0.01,0,0.01,0,0.02,0l0.01,0
		c0.01,0,0.01,0,0.02,0l0.01,0c0.01,0,0.01,0,0.02,0l0.01,0c0.01,0,0.01,0,0.02,0l0.01,0c0.01,0,0.01,0,0.02,0l0.01,0
		c0.01,0,0.01,0,0.02,0l0.01,0c0.01,0,0.01,0,0.02,0l0.01,0c0.01,0,0.01,0,0.02,0l0.01,0c0.01,0,0.01,0,0.02,0l0.01,0
		c0.01,0,0.01,0,0.02,0l0.01,0c0.01,0,0.01,0,0.02,0l0.01,0c0.01,0,0.01,0,0.02,0l0.01,0c0.01,0,0.01,0,0.02,0l0.01,0
		c0.01,0,0.01,0,0.02,0l0.01,0c0.01,0,0.01,0,0.02,0l0.01,0c0.01,0,0.01,0,0.02,0l0.01,0c0.01,0,0.01,0,0.02,0l0.01,0
		c0.01,0,0.01,0,0.02,0l0.01,0c0.01,0,0.01,0,0.02,0l0.01,0c0.01,0,0.01,0,0.02,0l0.01,0c0.01,0,0.01,0,0.02,0l0.01,0
		c0.01,0,0.01,0,0.02,0l0.01,0c0.01,0,0.01,0,0.02,0l0.01,0c0.01,0,0.01,0,0.02,0l0.01,0c0.01,0,0.01,0,0.02,0l0.01,0
		c0.01,0,0.01,0,0.02,0l0.01,0c0.01,0,0.01,0,0.02,0l0.01,0c0.01,0,0.01,0,0.02,0l0.01,0c0.01,0,0.01,0,0.02,0l0.01,0
		c0.01,0,0.01,0,0.02,0l0.01,0c0.01,0,0.01,0,0.02,0l0.01,0c0.01,0,0.01,0,0.02,0l0.01,0c0.01,0,0.01,0,0.02,0l0.01,0
		c0.01,0,0.01,0,0.02,0l0.01,0c0.01,0,0.01,0,0.02,0l0.01,0c0.01,0,0.01,0,0.02,0l0.01,0c0.01,0,0.01,0,0.02,0l0.01,0
		c0.01,0,0.01,0,0.02,0l0.01,0c0.01,0,0.01,0,0.02,0l0.01,0c0.01,0,0.01,0,0.02,0l0.01,0c0.01,0,0.01,0,0.02,0l0.01,0
		c0.01,0,0.01,0,0.02,0l0.01,0c0.01,0,0.01,0,0.02,0l0.01,0c0.01,0,0.01,0,0.02,0l0.01,0c0.01,0,0.01,0,0.02,0l0.01,0
		c0.01,0,0.01,0,0.02,0l0.01,0c0.01,0,0.01,0,0.02,0l0.01,0c0.01,0,0.01,0,0.02,0l0.01,0c0.01,0,0.01,0,0.02,0l0.01,0
		c0.01,0,0.01,0,0.02,0l0.01,0c0.01,0,0.01,0,0.02,0l0.01,0c0.01,0,0.01,0,0.02,0l0.01,0c0.01,0,0.01,0,0.02,0l0.01,0
		c0.01,0,0.01,0,0.02,0l0.01,0c0.01,0,0.01,0,0.02,0l0.01,0c0.01,0,0.01,0,0.02,0l0.01,0c0.01,0,0.01,0,0.02,0l0.01,0
		c0.01,0,0.01,0,0.02,0l0.01,0c0.01,0,0.01,0,0.02,0l0.01,0c0.01,0,0.01,0,0.02,0l0.01,0c0.01,0,0.01,0,0.02,0l0.01,0
		c0.01,0,0.01,0,0.02,0l0.01,0c0.01,0,0.01,0,0.02,0l0.01,0c0.01,0,0.01,0,0.02,0l0.01,0c0.01,0,0.01,0,0.02,0l0.01,0
		c0.01,0,0.01,0,0.02,0l0.01,0c0.01,0,0.01,0,0.02,0l0.01,0c0.01,0,0.01,0,0.02,0l0.01,0c0.01,0,0.01,0,0.02,0l0.01,0
		c0.01,0,0.01,0,0.02,0l0.01,0c0.01,0,0.01,0,0.02,0l0.01,0c0.01,0,0.01,0,0.02,0l0.01,0c0.01,0,0.01,0,0.02,0l0.01,0
		c0.01,0,0.01,0,0.02,0l0.01,0c0.01,0,0.01,0,0.02,0l0.01,0c0.01,0,0.01,0,0.02,0l0.01,0c0.01,0,0.01,0,0.02,0l0.01,0
		c0.01,0,0.01,0,0.02,0l0.01,0c0.01,0,0.01,0,0.02,0l0.01,0c0.01,0,0.01,0,0.02,0l0.01,0c0.01,0,0.01,0,0.02,0l0.01,0
		c0.01,0,0.01,0,0.02,0l0.01,0c0.01,0,0.01,0,0.02,0l0.01,0c0.01,0,0.01,0,0.02,0l0.01,0c0.01,0,0.01,0,0.02,0l0.01,0
		c0.01,0,0.01,0,0.02,0l0.01,0c0.01,0,0.01,0,0.02,0l0.01,0c0.01,0,0.01,0,0.02,0l0.01,0c0.01,0,0.01,0,0.02,0l0.01,0
		c0.01,0,0.01,0,0.02,0l0.01,0c0.01,0,0.01,0,0.02,0l0.01,0c0.01,0,0.01,0,0.02,0l0.01,0c0.01,0,0.01,0,0.02,0l0.01,0
		c0.01,0,0.01,0,0.02,0l0.01,0c0.01,0,0.01,0,0.02,0l0.01,0c0.01,0,0.01,0,0.02,0l0.01,0c0.01,0,0.01,0,0.02,0l0.01,0
		c0.01,0,0.01,0,0.02,0l0.01,0c0.01,0,0.01,0,0.02,0l0.01,0c0.01,0,0.01,0,0.02,0l0.01,0c0.01,0,0.01,0,0.02,0l0.01,0
		c0.01,0,0.01,0,0.02,0l0.01,0c0.01,0,0.01,0,0.02,0l0.01,0c0.01,0,0.01,0,0.02,0l0.01,0c0.01,0,0.01,0,0.02,0l0.01,0
		c0.01,0,0.01,0,0.02,0l0.01,0c0.01,0,0.01,0,0.02,0l0.01,0c0.01,0,0.01,0,0.02,0l0.01,0c0.01,0,0.01,0,0.02,0l0.01,0
		c0.01,0,0.01,0,0.02,0l0.01,0c0.01,0,0.01,0,0.02,0l0.01,0c0.01,0,0.01,0,0.02,0l0.01,0c0.01,0,0.01,0,0.02,0l0.01,0
		c0.01,0,0.01,0,0.02,0l0.01,0c4.41,0.05,8.52-2.19,10.87-5.92l5.08-8.04l57.93-95.27C143.69,44.48,142.58,42.51,140.78,42.51
		L140.78,42.51z"/>
</g>
</svg>
